<svg width="394" height="371" fill="none" xmlns="http://www.w3.org/2000/svg"><g clip-path="url(#a)"><path d="M31.424 102.293c-4.416-5.95.934-14.188 8.166-12.575l134.238 29.944c5.444 1.214 8.005 7.487 4.968 12.165l-52.284 80.51c-3.038 4.678-9.81 4.889-13.134.41L31.424 102.293zM324.43 15.673c3.997-3.963 10.759-.738 10.195 4.862l-13.889 137.789c-.416 4.133-4.804 6.602-8.553 4.814l-84.453-40.282c-3.749-1.788-4.591-6.752-1.641-9.676l98.341-97.507z" fill="#0D0D0D" fill-opacity=".99"/><ellipse cx="225.565" cy="214.53" rx="112.741" ry="111.393" transform="rotate(-10 225.565 214.53)" fill="#0D0D0D" fill-opacity=".99"/><rect x="166" y="222.095" width="48" height="3.73" rx="1.865" transform="rotate(-8.5 166 222.095)" fill="#E6DED1"/><rect x="245" y="207.335" width="48" height="3.828" rx="1.914" transform="rotate(-10 245 207.335)" fill="#E6DED1"/></g><defs><clipPath id="a"><path fill="#fff" transform="rotate(-10 341.415 29.87)" d="M0 0h344.028v315.428H0z"/></clipPath></defs></svg>