<svg width="395" height="364" viewBox="0 0 395 364" fill="none" xmlns="http://www.w3.org/2000/svg">
<g clip-path="url(#clip0_4_11)">
<path d="M31.9452 102.374C27.5298 96.4232 32.8793 88.1858 40.1116 89.799L174.35 119.743C179.794 120.957 182.355 127.23 179.317 131.908L127.034 212.418C123.996 217.096 117.223 217.307 113.9 212.828L31.9452 102.374Z" fill="#0D0D0D" fill-opacity="0.99"/>
<path d="M324.952 15.7539C328.949 11.7911 335.711 15.0164 335.146 20.6163L321.258 158.405C320.841 162.537 316.454 165.007 312.705 163.219L228.252 122.937C224.503 121.149 223.661 116.185 226.61 113.261L324.952 15.7539Z" fill="#0D0D0D" fill-opacity="0.99"/>
<ellipse cx="226.087" cy="214.611" rx="112.741" ry="111.393" transform="rotate(-10 226.087 214.611)" fill="#0D0D0D" fill-opacity="0.99"/>
<rect x="175.554" y="216.056" width="48" height="3.72964" rx="1.86482" transform="rotate(0.5 175.554 216.056)" fill="#E6DED1"/>
<rect x="249.522" y="216.056" width="48" height="4" rx="2" fill="#E6DED1"/>
</g>
<defs>
<clipPath id="clip0_4_11">
<rect width="344.028" height="315.428" fill="white" transform="translate(0.52179 59.8207) rotate(-10)"/>
</clipPath>
</defs>
</svg>
